<?xml version="1.0" encoding="iso-8859-1"?>
<!-- Generator: Adobe Illustrator 18.0.0, SVG Export Plug-In . SVG Version: 6.00 Build 0)  -->
<!DOCTYPE svg PUBLIC "-//W3C//DTD SVG 1.1//EN" "http://www.w3.org/Graphics/SVG/1.1/DTD/svg11.dtd">
<svg version="1.1" id="Capa_1" xmlns="http://www.w3.org/2000/svg" xmlns:xlink="http://www.w3.org/1999/xlink" x="0px" y="0px"
	 viewBox="0 0 111.851 111.851" style="enable-background:new 0 0 111.851 111.851;" xml:space="preserve">
<g>
	<g>
		<path d="M84.613,100.385c0,2.503-2.029,4.532-4.533,4.532H32.52c-2.503,0-4.532-2.029-4.532-4.532l0,0
			c0-2.503,2.029-4.532,4.532-4.532h47.56C82.584,95.852,84.613,97.882,84.613,100.385L84.613,100.385z"/>
		<g>
			<path d="M107.25,56.499c0.473-2.809,0.725-5.692,0.725-8.635H4.626c0,2.942,0.252,5.826,0.725,8.635H107.25z"/>
			<path d="M5.932,59.419c3.382,14.794,13.11,27.168,26.171,34.105h48.395c13.062-6.937,22.789-19.311,26.171-34.105H5.932z"/>
		</g>
	</g>
	<g>
		<path d="M69.263,20.513c0,2.557,2.072,4.63,4.629,4.63h33.33c2.557,0,4.629-2.073,4.629-4.63c0-2.557-2.072-4.629-4.629-4.629
			h-33.33C71.335,15.885,69.263,17.957,69.263,20.513z M109.671,20.513c0,1.135-0.92,2.055-2.055,2.055
			c-1.135,0-2.055-0.92-2.055-2.055c0-1.135,0.92-2.055,2.055-2.055C108.751,18.459,109.671,19.379,109.671,20.513z"/>
		<g>
			<path style="fill:none;stroke:#000000;stroke-width:1.5;stroke-linecap:round;stroke-linejoin:round;stroke-miterlimit:10;" d="
				M13.579,7.684c7.085,0,44.593,12.829,44.593,12.829S20.664,33.343,13.579,33.343c-7.085,0-12.829-5.743-12.829-12.829
				C0.75,13.428,6.494,7.684,13.579,7.684z"/>
			<path style="fill:none;stroke:#000000;stroke-width:1.5;stroke-linecap:round;stroke-linejoin:round;stroke-miterlimit:10;" d="
				M13.579,12.329c7.085,0,44.593,8.185,44.593,8.185s-37.508,8.184-44.593,8.184c-7.085,0-12.829-3.664-12.829-8.184
				C0.75,15.994,6.494,12.329,13.579,12.329z"/>
			<path style="fill:none;stroke:#000000;stroke-width:1.5;stroke-linecap:round;stroke-linejoin:round;stroke-miterlimit:10;" d="
				M13.579,17.308c7.085,0,44.593,3.205,44.593,3.205s-37.508,3.206-44.593,3.206c-7.085,0-12.829-1.436-12.829-3.206
				S6.494,17.308,13.579,17.308z"/>
		</g>
		<rect x="55.331" y="18.045" width="12.904" height="4.938"/>
	</g>
</g>
<g>
</g>
<g>
</g>
<g>
</g>
<g>
</g>
<g>
</g>
<g>
</g>
<g>
</g>
<g>
</g>
<g>
</g>
<g>
</g>
<g>
</g>
<g>
</g>
<g>
</g>
<g>
</g>
<g>
</g>
</svg>
